<mxfile host="65bd71144e">
    <diagram id="GKHFVaXKYX9gLiBEL7iB" name="Page-1">
        <mxGraphModel dx="792" dy="450" grid="1" gridSize="10" guides="1" tooltips="1" connect="1" arrows="1" fold="1" page="1" pageScale="1" pageWidth="850" pageHeight="1100" math="0" shadow="0">
            <root>
                <mxCell id="0"/>
                <mxCell id="1" parent="0"/>
                <mxCell id="14" value="" style="rounded=0;whiteSpace=wrap;html=1;labelBorderColor=none;fillColor=#000000;" parent="1" vertex="1">
                    <mxGeometry x="80" y="100" width="370" height="160" as="geometry"/>
                </mxCell>
                <mxCell id="29" value="" style="edgeStyle=none;html=1;" edge="1" parent="1" source="28" target="21">
                    <mxGeometry relative="1" as="geometry"/>
                </mxCell>
                <mxCell id="28" value="" style="rounded=0;whiteSpace=wrap;html=1;strokeColor=#66B2FF;" vertex="1" parent="1">
                    <mxGeometry x="330" y="107.5" width="110" height="145" as="geometry"/>
                </mxCell>
                <mxCell id="2" value="CT&lt;br&gt;(mov)" style="rounded=0;whiteSpace=wrap;html=1;" parent="1" vertex="1">
                    <mxGeometry x="105" y="115" width="80" height="40" as="geometry"/>
                </mxCell>
                <mxCell id="3" value="CT&lt;br&gt;(fix)" style="rounded=0;whiteSpace=wrap;html=1;" parent="1" vertex="1">
                    <mxGeometry x="105" y="205" width="80" height="40" as="geometry"/>
                </mxCell>
                <mxCell id="4" value="Contours&lt;br&gt;(fix)" style="rounded=0;whiteSpace=wrap;html=1;" parent="1" vertex="1">
                    <mxGeometry x="345" y="205" width="80" height="40" as="geometry"/>
                </mxCell>
                <mxCell id="5" value="" style="endArrow=classic;html=1;exitX=1;exitY=0.5;exitDx=0;exitDy=0;entryX=0;entryY=0.5;entryDx=0;entryDy=0;" parent="1" source="3" target="4" edge="1">
                    <mxGeometry relative="1" as="geometry">
                        <mxPoint x="215" y="224.66" as="sourcePoint"/>
                        <mxPoint x="315" y="224.66" as="targetPoint"/>
                    </mxGeometry>
                </mxCell>
                <mxCell id="6" value="TotalSegmentator" style="edgeLabel;resizable=0;html=1;align=center;verticalAlign=middle;labelBorderColor=#FFFFFF;" parent="5" connectable="0" vertex="1">
                    <mxGeometry relative="1" as="geometry"/>
                </mxCell>
                <mxCell id="7" value="Contours&lt;br&gt;(mov)" style="rounded=0;whiteSpace=wrap;html=1;" parent="1" vertex="1">
                    <mxGeometry x="345" y="115" width="80" height="40" as="geometry"/>
                </mxCell>
                <mxCell id="8" value="" style="endArrow=classic;html=1;exitX=1;exitY=0.5;exitDx=0;exitDy=0;entryX=0;entryY=0.5;entryDx=0;entryDy=0;" parent="1" source="2" target="7" edge="1">
                    <mxGeometry relative="1" as="geometry">
                        <mxPoint x="205" y="145" as="sourcePoint"/>
                        <mxPoint x="365" y="145" as="targetPoint"/>
                    </mxGeometry>
                </mxCell>
                <mxCell id="9" value="TotalSegmentator" style="edgeLabel;resizable=0;html=1;align=center;verticalAlign=middle;labelBorderColor=#FFFFFF;" parent="8" connectable="0" vertex="1">
                    <mxGeometry relative="1" as="geometry"/>
                </mxCell>
                <mxCell id="10" value="Initial Alignment" style="rounded=1;whiteSpace=wrap;html=1;labelBorderColor=none;" parent="1" vertex="1">
                    <mxGeometry x="505" y="160" width="120" height="40" as="geometry"/>
                </mxCell>
                <mxCell id="15" value="" style="endArrow=classic;html=1;exitX=1;exitY=0.5;exitDx=0;exitDy=0;entryX=0;entryY=0.5;entryDx=0;entryDy=0;" parent="1" source="14" target="10" edge="1">
                    <mxGeometry width="50" height="50" relative="1" as="geometry">
                        <mxPoint x="325" y="270" as="sourcePoint"/>
                        <mxPoint x="375" y="220" as="targetPoint"/>
                    </mxGeometry>
                </mxCell>
                <mxCell id="16" value="Elastix" style="text;html=1;strokeColor=none;fillColor=none;align=center;verticalAlign=middle;whiteSpace=wrap;rounded=0;labelBorderColor=none;" parent="1" vertex="1">
                    <mxGeometry x="450" y="180" width="60" height="30" as="geometry"/>
                </mxCell>
                <mxCell id="18" value="" style="endArrow=classic;html=1;exitX=0.5;exitY=1;exitDx=0;exitDy=0;entryX=0.5;entryY=0;entryDx=0;entryDy=0;" parent="1" source="10" target="19" edge="1">
                    <mxGeometry width="50" height="50" relative="1" as="geometry">
                        <mxPoint x="325" y="270" as="sourcePoint"/>
                        <mxPoint x="565" y="280" as="targetPoint"/>
                    </mxGeometry>
                </mxCell>
                <mxCell id="19" value="GraphRegNet" style="rounded=1;whiteSpace=wrap;html=1;labelBorderColor=none;" parent="1" vertex="1">
                    <mxGeometry x="505" y="300" width="120" height="40" as="geometry"/>
                </mxCell>
                <mxCell id="20" value="" style="edgeStyle=segmentEdgeStyle;endArrow=classic;html=1;curved=0;rounded=0;endSize=8;startSize=8;exitX=0.5;exitY=1;exitDx=0;exitDy=0;entryX=-0.02;entryY=0.391;entryDx=0;entryDy=0;entryPerimeter=0;" parent="1" source="14" target="19" edge="1">
                    <mxGeometry width="50" height="50" relative="1" as="geometry">
                        <mxPoint x="325" y="270" as="sourcePoint"/>
                        <mxPoint x="375" y="220" as="targetPoint"/>
                        <Array as="points">
                            <mxPoint x="265" y="316"/>
                            <mxPoint x="375" y="316"/>
                        </Array>
                    </mxGeometry>
                </mxCell>
                <mxCell id="21" value="For each contour" style="text;html=1;strokeColor=none;fillColor=none;align=center;verticalAlign=middle;whiteSpace=wrap;rounded=0;labelBorderColor=none;" parent="1" vertex="1">
                    <mxGeometry x="330" y="290" width="110" height="30" as="geometry"/>
                </mxCell>
                <mxCell id="25" value="" style="edgeStyle=none;html=1;" edge="1" parent="1" source="22" target="19">
                    <mxGeometry relative="1" as="geometry"/>
                </mxCell>
                <mxCell id="22" value="Boundary Loss" style="rounded=1;whiteSpace=wrap;html=1;strokeColor=#66B2FF;" vertex="1" parent="1">
                    <mxGeometry x="505" y="360" width="120" height="20" as="geometry"/>
                </mxCell>
                <mxCell id="26" value="" style="edgeStyle=none;html=1;" edge="1" parent="1" source="24" target="10">
                    <mxGeometry relative="1" as="geometry"/>
                </mxCell>
                <mxCell id="24" value="Kappa Metric" style="rounded=1;whiteSpace=wrap;html=1;strokeColor=#66B2FF;" vertex="1" parent="1">
                    <mxGeometry x="640" y="170" width="90" height="20" as="geometry"/>
                </mxCell>
                <mxCell id="30" value="To sort out most of the boundary alignment" style="text;html=1;strokeColor=none;fillColor=none;align=center;verticalAlign=middle;whiteSpace=wrap;rounded=0;labelBorderColor=none;fontStyle=2;fontSize=9;" vertex="1" parent="1">
                    <mxGeometry x="625" y="190" width="130" height="30" as="geometry"/>
                </mxCell>
                <mxCell id="31" value="To account for the remaining boundary alignment" style="text;html=1;strokeColor=none;fillColor=none;align=center;verticalAlign=middle;whiteSpace=wrap;rounded=0;labelBorderColor=none;fontStyle=2;fontSize=9;" vertex="1" parent="1">
                    <mxGeometry x="505" y="390" width="130" height="30" as="geometry"/>
                </mxCell>
            </root>
        </mxGraphModel>
    </diagram>
</mxfile>